<svg width="16" height="16" viewBox="0 0 16 16" fill="none" xmlns="http://www.w3.org/2000/svg">
<path d="M7.21833 3.89204C7.27295 3.8605 7.32847 3.83215 7.38467 3.80692L7.3847 7.11383C6.04966 6.52434 5.92459 4.63898 7.21833 3.89204Z" fill="#FFD02B"/>
<path d="M8.61544 12.1931L8.61547 8.88616C9.95052 9.47565 10.0756 11.361 8.78185 12.108C8.7272 12.1395 8.67166 12.1679 8.61544 12.1931Z" fill="#FFD02B"/>
<path fill-rule="evenodd" clip-rule="evenodd" d="M7.96287 1.08584e-07H8.03713C9.54403 -6.59159e-06 10.7252 -1.19209e-05 11.6624 0.101521C12.6187 0.205133 13.3936 0.420369 14.0552 0.901048C14.4557 1.19205 14.808 1.54428 15.099 1.94481C15.5796 2.60641 15.7949 3.38128 15.8985 4.33762C16 5.27474 16 6.45593 16 7.96279V8.03715C16 9.54401 16 10.7253 15.8985 11.6624C15.7949 12.6187 15.5796 13.3936 15.099 14.0552C14.808 14.4557 14.4557 14.808 14.0552 15.099C13.3936 15.5796 12.6187 15.7949 11.6624 15.8985C10.7253 16 9.54407 16 8.03721 16H7.96285C6.45599 16 5.27474 16 4.33762 15.8985C3.38128 15.7949 2.60641 15.5796 1.94481 15.099C1.54428 14.808 1.19205 14.4557 0.901048 14.0552C0.420369 13.3936 0.205133 12.6187 0.101521 11.6624C-1.19209e-05 10.7252 -6.59159e-06 9.54403 1.08584e-07 8.03713V7.96287C-6.59159e-06 6.45597 -1.19209e-05 5.27476 0.101521 4.33762C0.205133 3.38128 0.420369 2.60641 0.901048 1.94481C1.19205 1.54428 1.54428 1.19205 1.94481 0.901048C2.60641 0.420369 3.38128 0.205133 4.33762 0.101521C5.27476 -1.19209e-05 6.45597 -6.59159e-06 7.96287 1.08584e-07ZM8.61543 2.25641C8.61543 1.91654 8.33991 1.64103 8.00004 1.64103C7.66018 1.64103 7.38466 1.91654 7.38466 2.25641V2.50919C7.11654 2.57645 6.85345 2.68154 6.60294 2.82617C4.36962 4.11558 4.65347 7.42475 7.07377 8.31498L7.3847 8.42934L7.38467 12.2826C6.94578 12.1588 6.55365 11.8704 6.30814 11.4451L5.99999 10.9114C5.83005 10.6171 5.45369 10.5162 5.15936 10.6861C4.86502 10.8561 4.76417 11.2324 4.93411 11.5268L5.24226 12.0605C5.71691 12.8826 6.51709 13.3987 7.38466 13.5413L7.38466 13.7436C7.38466 14.0835 7.66017 14.359 8.00004 14.359C8.33991 14.359 8.61543 14.0835 8.61543 13.7436L8.61543 13.4908C8.88358 13.4236 9.1467 13.3185 9.39723 13.1738C11.6306 11.8844 11.3467 8.57525 8.92641 7.68503L8.61547 7.57066L8.61543 3.71736C9.05435 3.84113 9.44651 4.12962 9.69203 4.55487L10.0002 5.08861C10.1701 5.38295 10.5465 5.48379 10.8408 5.31386C11.1351 5.14392 11.236 4.76756 11.0661 4.47323L10.7579 3.93949C10.2833 3.11736 9.48303 2.6013 8.61543 2.45867V2.25641Z" fill="#FFD02B"/>
</svg>
