<svg width="60" height="60" viewBox="0 0 60 60" fill="none" xmlns="http://www.w3.org/2000/svg">
<g clip-path="url(#clip0_439_139)">
<path d="M59.2263 45.9162C57.0935 46.4586 55.7743 45.9401 54.5906 44.1627L46.173 32.5166L44.9564 30.9042L35.1261 44.2012C34.0029 45.8008 32.8247 46.4971 30.7286 45.9309L43.3165 29.0334L31.5971 13.7704C33.6126 13.3783 35.0052 13.578 36.242 15.3828L44.9729 27.1737L53.7679 15.4469C54.8948 13.8474 56.1059 13.239 58.1288 13.829L53.5847 19.8536L47.4281 27.8699C46.6952 28.7861 46.796 29.4127 47.4703 30.2977L59.2263 45.9162ZM0.607432 28.7513L1.63718 23.6868C4.4406 13.6641 15.9291 9.49931 23.852 15.6925C28.4822 19.3351 29.6329 24.4875 29.4038 30.2592H3.30457C2.91246 40.6484 10.3901 46.9185 19.9235 43.7193C23.2675 42.5961 25.2372 39.9778 26.223 36.7016C26.7232 35.0599 27.5514 34.8033 29.0942 35.2724C28.3063 39.3694 26.529 42.7922 22.7727 44.9341C17.1604 48.1406 9.14961 47.1036 4.93532 42.6474C2.42507 40.062 1.38799 36.7859 0.922587 33.2825C0.849295 32.7035 0.702711 32.152 0.592773 31.5968C0.602546 30.6489 0.607432 29.701 0.607432 28.7531V28.7513ZM3.35221 28.055H26.9376C26.7836 20.5426 22.1058 15.2069 15.7129 15.1611C8.6952 15.1061 3.65638 20.3154 3.35221 28.055Z" fill="#F9FAFB"/>
</g>
<defs>
<clipPath id="clip0_439_139">
<rect width="58.6335" height="58.6335" fill="white" transform="translate(0.592773 0.484375)"/>
</clipPath>
</defs>
</svg>
