<svg width="20" height="20" viewBox="0 0 20 21" fill="none" xmlns="http://www.w3.org/2000/svg">
<path d="M19.5599 9.01432L18.1999 7.43432C17.9399 7.13432 17.7299 6.57432 17.7299 6.17432V4.47432C17.7299 3.41432 16.8599 2.54432 15.7999 2.54432H14.0999C13.7099 2.54432 13.1399 2.33432 12.8399 2.07432L11.2599 0.71432C10.5699 0.12432 9.43988 0.12432 8.73988 0.71432L7.16988 2.08432C6.86988 2.33432 6.29988 2.54432 5.90988 2.54432H4.17988C3.11988 2.54432 2.24988 3.41432 2.24988 4.47432V6.18432C2.24988 6.57432 2.03988 7.13432 1.78988 7.43432L0.439883 9.02432C-0.140117 9.71432 -0.140117 10.8343 0.439883 11.5243L1.78988 13.1143C2.03988 13.4143 2.24988 13.9743 2.24988 14.3643V16.0743C2.24988 17.1343 3.11988 18.0043 4.17988 18.0043H5.90988C6.29988 18.0043 6.86988 18.2143 7.16988 18.4743L8.74988 19.8343C9.43988 20.4243 10.5699 20.4243 11.2699 19.8343L12.8499 18.4743C13.1499 18.2143 13.7099 18.0043 14.1099 18.0043H15.8099C16.8699 18.0043 17.7399 17.1343 17.7399 16.0743V14.3743C17.7399 13.9843 17.9499 13.4143 18.2099 13.1143L19.5699 11.5343C20.1499 10.8443 20.1499 9.70432 19.5599 9.01432ZM14.6799 10.2743L13.5099 13.8343C13.3599 14.4243 12.7299 14.9043 12.0899 14.9043H10.2399C9.91988 14.9043 9.46988 14.7943 9.26988 14.5943L7.79988 13.4443C7.76988 14.0843 7.47988 14.3543 6.76988 14.3543H6.28988C5.54988 14.3543 5.24988 14.0643 5.24988 13.3643V8.58432C5.24988 7.88432 5.54988 7.59432 6.28988 7.59432H6.77988C7.51988 7.59432 7.81988 7.88432 7.81988 8.58432V8.94432L9.75988 6.06432C9.95988 5.75432 10.4699 5.53432 10.8999 5.70432C11.3699 5.86432 11.6699 6.38432 11.5699 6.84432L11.3299 8.40432C11.3099 8.54432 11.3399 8.67432 11.4299 8.77432C11.5099 8.86432 11.6299 8.92432 11.7599 8.92432H13.7099C14.0899 8.92432 14.4099 9.07432 14.5999 9.34432C14.7699 9.60432 14.7999 9.93432 14.6799 10.2743Z" fill="#47FF5A"/>
</svg>
