<svg width="62" height="60" viewBox="0 0 62 60" fill="none" xmlns="http://www.w3.org/2000/svg">
<path fill-rule="evenodd" clip-rule="evenodd" d="M35.7757 1.45703C35.3618 1.45703 34.9775 1.54598 34.6227 1.66457C35.3766 2.16859 35.7905 2.83568 35.9974 3.59171C36.0123 3.69548 36.0418 3.76961 36.0566 3.87337C36.0714 3.96232 36.0861 4.05126 36.0861 4.14021C36.1453 5.44473 35.7461 5.6078 35.4653 6.37866C35.0366 7.37188 35.1548 8.43922 35.6722 9.29903C35.7166 9.40279 35.7757 9.52138 35.8496 9.62515C35.2879 5.87464 38.4069 5.31132 38.9834 4.14021C39.0278 3.11734 38.1852 2.43543 37.52 1.96105C36.8844 1.57563 36.3078 1.45703 35.7757 1.45703ZM40.4764 2.30201C40.4173 2.64297 40.4616 2.55402 40.4469 2.73191C40.4321 2.8505 40.4321 2.99875 40.4173 3.11734C40.3878 3.23593 40.3582 3.35452 40.3138 3.47312C40.2843 3.59171 40.2399 3.71031 40.1956 3.8289C40.1364 3.9475 40.0921 4.05126 40.033 4.16986C39.9886 4.22918 39.9591 4.28845 39.9147 4.34775C39.8852 4.39222 39.8556 4.43669 39.826 4.48116C39.7521 4.58494 39.6782 4.6887 39.6043 4.77765C39.5156 4.86659 39.4417 4.97036 39.3382 5.04449V5.05933C39.2495 5.13345 39.1608 5.2224 39.0574 5.29651C38.7469 5.5337 38.3922 5.71159 38.067 5.93395C37.9635 6.00807 37.86 6.06737 37.7713 6.15632C37.6679 6.23044 37.5792 6.30456 37.4905 6.3935C37.387 6.48245 37.3131 6.57139 37.2244 6.67517C37.1505 6.76411 37.0618 6.86788 37.0027 6.97165C36.9287 7.07541 36.8548 7.17919 36.7957 7.28295C36.7366 7.40154 36.6922 7.50532 36.6331 7.62391C36.5888 7.7425 36.5444 7.84627 36.5148 7.96486C36.4705 8.09828 36.4409 8.21688 36.4114 8.33547C36.3966 8.39479 36.3966 8.46889 36.3818 8.52819C36.367 8.58751 36.367 8.64678 36.3523 8.70608C36.3523 8.82467 36.3375 8.95809 36.3375 9.07668C36.3375 9.16563 36.3375 9.25457 36.3523 9.34352C36.3523 9.46211 36.3671 9.5807 36.3966 9.71412C36.4114 9.83271 36.441 9.9513 36.4706 10.0699C36.5149 10.1885 36.5445 10.3071 36.5888 10.4257C36.6184 10.4998 36.6627 10.5739 36.6923 10.6332L33.2924 9.31386C32.7159 9.1508 32.1542 9.00256 31.5777 8.86914C31.2673 8.79502 30.9568 8.7209 30.6464 8.64678C29.7595 8.46889 28.8578 8.33547 27.9561 8.24653C27.9265 8.24653 27.9117 8.23169 27.8822 8.23169C26.9952 8.14274 26.1231 8.09827 25.2362 8.09827C24.5857 8.09827 23.9353 8.12789 23.2997 8.17239C22.398 8.23171 21.4963 8.35028 20.5946 8.49852C20.3728 8.52814 20.1511 8.57264 19.9294 8.61712C19.4711 8.70606 19.0277 8.80983 18.599 8.9136C18.3773 8.97292 18.1555 9.03219 17.9338 9.09149C17.7121 9.18043 17.5051 9.2842 17.2982 9.37315C17.1356 9.44727 16.973 9.52139 16.8104 9.59551C16.7808 9.61036 16.7512 9.61036 16.7364 9.62514C16.5886 9.69926 16.4556 9.75855 16.3226 9.83267C16.2782 9.84752 16.2486 9.8623 16.2191 9.87715C16.0565 9.95127 15.8939 10.0402 15.7608 10.1143C15.6574 10.1588 15.5539 10.2181 15.4652 10.2626C15.4208 10.2922 15.3617 10.3219 15.3321 10.3367C15.1991 10.4108 15.0661 10.4849 14.9478 10.5591C14.8148 10.6332 14.6965 10.7073 14.593 10.7814C14.4896 10.8555 14.3861 10.9148 14.2974 10.989C14.2826 11.0038 14.2679 11.0038 14.2531 11.0186C14.1644 11.0779 14.0609 11.152 13.9722 11.2261C13.9722 11.2261 13.9574 11.241 13.9427 11.2558C13.8687 11.3151 13.7948 11.3743 13.7209 11.4336C13.6914 11.4485 13.6618 11.4781 13.6322 11.493C13.5583 11.5523 13.4844 11.6264 13.4105 11.6857C13.3957 11.7153 13.3662 11.7301 13.3514 11.745C13.2627 11.8339 13.174 11.9081 13.0853 11.997C13.0705 11.997 13.0705 12.0119 13.0557 12.0266C12.967 12.1007 12.8783 12.1897 12.7896 12.2786C12.7748 12.2935 12.7748 12.3083 12.7601 12.3083C12.6862 12.3824 12.6123 12.4565 12.5384 12.5454C12.5088 12.5751 12.4645 12.6048 12.4349 12.6344C12.361 12.7233 12.2723 12.8123 12.1836 12.9012C12.1688 12.9309 12.1393 12.9457 12.1245 12.9754C12.0062 13.094 11.9027 13.2125 11.7845 13.3311C11.7697 13.346 11.7549 13.3608 11.7401 13.3756C11.5036 13.6276 11.2523 13.8796 10.9862 14.102C10.7202 14.3392 10.4393 14.5615 10.1584 14.7543C9.86279 14.9618 9.58194 15.1397 9.27151 15.3176C8.97587 15.4806 8.66544 15.6289 8.34024 15.7623C8.02981 15.8957 7.70461 16.0143 7.37941 16.1181C6.75855 16.2515 6.12292 16.5035 5.57599 16.548C5.45773 16.548 5.32469 16.5776 5.20644 16.5924C5.0734 16.6221 4.95514 16.6518 4.83689 16.6814C4.71863 16.7259 4.60037 16.7703 4.48211 16.8148C4.36386 16.8593 4.2456 16.9186 4.12735 16.9779C4.02387 17.052 3.90561 17.1113 3.80214 17.1854C3.69866 17.2595 3.59519 17.3485 3.50649 17.4374C3.40302 17.5116 3.29954 17.6153 3.21085 17.7043C3.12216 17.808 3.03347 17.897 2.95956 18.0007C2.88565 18.1193 2.79695 18.2231 2.73782 18.3417C2.66391 18.4455 2.59001 18.5641 2.53087 18.6827C2.47172 18.8161 2.41262 18.9347 2.36827 19.0681C2.32393 19.1867 2.27958 19.3201 2.23523 19.4535C2.20569 19.5721 2.17608 19.6907 2.16132 19.8093C2.16132 19.8242 2.14652 19.8389 2.14652 19.8538C2.11698 19.9872 2.11698 20.1651 2.10217 20.254C2.08737 20.3578 2.07263 20.4467 2.07263 20.5505C2.07263 20.6098 2.07263 20.6839 2.08744 20.7432C2.10224 20.847 2.11698 20.9359 2.14659 21.0249C2.17613 21.1138 2.20574 21.2028 2.25006 21.2917V21.3066C2.29441 21.3955 2.35354 21.4845 2.41266 21.5734C2.47181 21.6623 2.53092 21.7513 2.60483 21.8402C2.67874 21.9144 2.76743 22.0033 2.85613 22.0774C2.94482 22.1664 3.03351 22.2405 3.13698 22.3146C3.49176 22.6259 3.58045 22.7297 4.03869 22.9669C4.1126 23.0113 4.18652 23.041 4.27521 23.0855C4.29002 23.0855 4.30475 23.1003 4.31956 23.1003C4.31956 23.1299 4.31956 23.1448 4.33437 23.1744C4.34917 23.293 4.37871 23.4116 4.40827 23.5302C4.43782 23.6636 4.48219 23.7822 4.52654 23.886C4.57088 23.9749 4.60045 24.0639 4.64479 24.1528C4.6596 24.1825 4.67433 24.2122 4.68914 24.227C4.74829 24.3455 4.80739 24.4493 4.86652 24.5531C4.94043 24.6569 5.01434 24.7606 5.08825 24.8644C5.16216 24.9533 5.25085 25.0571 5.33955 25.1461C5.42824 25.235 5.51693 25.3091 5.62041 25.3981C5.62041 25.3981 5.63522 25.4129 5.64995 25.4129C5.73865 25.4871 5.82734 25.5612 5.91603 25.6205C6.0195 25.6946 6.12298 25.7539 6.24124 25.8132C6.34471 25.8725 6.46297 25.9318 6.58122 25.9762C6.66992 26.0207 6.77339 26.0504 6.87687 26.08C6.89167 26.0949 6.90641 26.0949 6.93602 26.1096C6.99517 26.1245 7.06905 26.1393 7.12818 26.1541C7.08384 26.9546 7.06903 27.7106 7.18733 27.9775C7.32037 28.274 7.97078 27.3697 8.6212 26.332C8.5325 27.3549 8.47337 28.5556 8.6212 28.9114C8.7838 29.282 9.67072 28.1257 10.4394 26.8509C20.9199 24.4197 30.4839 31.6835 31.4891 41.9419C31.2969 40.3409 29.3309 39.4514 28.4292 39.6738C27.9857 40.7708 27.2319 42.1791 26.0197 43.0537C26.1232 42.0753 26.0789 41.0672 25.8719 40.0888C25.5467 41.4527 24.9111 42.7276 24.0389 43.8245C22.6346 43.9283 21.2303 43.2464 20.4912 42.2235C20.4321 42.1791 20.4173 42.0901 20.373 42.0308C20.3286 41.927 20.2843 41.8233 20.2547 41.7195C20.2104 41.6157 20.1808 41.512 20.166 41.4082C20.1512 41.3044 20.1512 41.2007 20.1512 41.0821C20.1512 41.0079 20.1512 40.9338 20.1512 40.8597C20.166 40.7559 20.1955 40.6522 20.2251 40.5484C20.2547 40.4446 20.2843 40.3409 20.3286 40.2371C20.3877 40.1333 20.4321 40.0295 20.506 39.9258C20.7573 39.2142 20.7573 38.6361 20.299 38.2951C20.2103 38.2358 20.1216 38.1913 20.0182 38.1469C19.959 38.132 19.8851 38.1024 19.826 38.0876C19.7817 38.0727 19.7521 38.0579 19.7077 38.0431C19.6043 38.0135 19.5008 37.9838 19.3973 37.969C19.2938 37.9393 19.1904 37.9245 19.0869 37.9245C18.9834 37.9096 18.8652 37.8949 18.7617 37.8949C18.6878 37.8949 18.6139 37.9097 18.54 37.9097C18.4217 37.9097 18.3182 37.9246 18.2147 37.9542C18.1113 37.969 18.0078 37.9838 17.9043 38.0135C17.8009 38.0431 17.6974 38.0728 17.5939 38.1173C17.4904 38.1617 17.4017 38.2062 17.2983 38.2507C17.2096 38.2952 17.1209 38.3545 17.0174 38.3989C13.5732 40.6522 15.6279 45.9296 17.9782 47.4565C17.0913 47.6196 16.1896 47.8123 15.9383 48.005C15.9235 48.0198 15.9088 48.0346 15.9088 48.0346C16.5444 48.42 17.2096 48.7462 17.9043 49.0278C18.8504 49.3391 19.8556 49.6208 20.299 49.7394V49.7542C21.526 50.0063 22.7677 50.0952 24.0241 50.0211C30.5726 49.5615 35.9385 44.5658 36.9141 37.9838C36.9437 38.1173 36.9733 38.2359 37.0028 38.3693C37.0472 38.6361 37.1063 38.9178 37.1359 39.1994V39.2143C37.1654 39.3477 37.1802 39.4811 37.195 39.5997V39.659C37.2098 39.7925 37.2245 39.9259 37.2245 40.0445C37.2393 40.2075 37.2541 40.3706 37.2541 40.5337V40.7709C37.2541 40.845 37.2689 40.9339 37.2689 41.008C37.2689 41.097 37.2541 41.1859 37.2541 41.2749V41.4824C37.2541 41.5862 37.2393 41.6751 37.2393 41.7789C37.2393 41.8382 37.2393 41.8975 37.2245 41.9716C37.2245 42.0754 37.2097 42.1791 37.2097 42.2977C37.1948 42.3422 37.1948 42.3867 37.1948 42.4312C37.18 42.5498 37.1653 42.6535 37.1505 42.7721C37.1505 42.8166 37.1505 42.8611 37.1357 42.9055C37.1209 43.0538 37.0914 43.1872 37.0765 43.3354V43.3503V43.3651C37.047 43.4986 37.0174 43.6468 36.9878 43.7802V43.8247C36.9583 43.9581 36.9287 44.0915 36.8992 44.2249C36.8992 44.2398 36.8844 44.2694 36.8844 44.2843C36.8548 44.4177 36.8252 44.5511 36.7809 44.6845V44.729C36.7365 44.8772 36.6922 45.0106 36.6626 45.1441C36.6478 45.1589 36.6478 45.1737 36.6478 45.1737C36.6035 45.3219 36.5591 45.4702 36.5148 45.6184C36.4556 45.7667 36.4113 45.9001 36.3522 46.0483C36.293 46.1966 36.2487 46.3448 36.1896 46.4782C36.1304 46.6265 36.0713 46.7599 36.0122 46.9081H35.9974C35.9382 47.0415 35.8791 47.1898 35.8052 47.3232C35.7904 47.3677 35.7757 47.3973 35.7609 47.427C35.7461 47.4418 35.7461 47.4566 35.7313 47.4714C34.7705 49.4134 33.3514 51.1182 31.5776 52.4524C31.4593 52.5265 31.341 52.6154 31.2228 52.7044C31.1932 52.734 31.1489 52.7488 31.1193 52.7785C31.0158 52.8526 30.9124 52.9267 30.7941 53.0009L30.8384 53.0898H30.8532C31.0602 53.0602 31.2671 53.0305 31.4741 53.0009H31.4889C31.8732 52.9415 32.2576 52.8674 32.6419 52.7933C32.7454 52.7785 32.8636 52.7488 32.9671 52.7192C33.041 52.7043 33.1001 52.6896 33.1741 52.6747C33.2775 52.6599 33.381 52.6302 33.4845 52.6154C33.5732 52.5858 33.6619 52.5709 33.7506 52.5413C35.2288 52.1855 36.6626 51.6963 38.0374 51.1182C35.687 54.335 32.5384 56.9292 28.8577 58.634C30.5576 58.5154 32.2576 58.2338 33.8984 57.7594C39.8556 55.9953 44.8667 51.978 47.8675 46.5671C47.2614 49.9915 45.9014 53.2528 43.8911 56.0991C45.3249 55.1503 46.6405 54.0533 47.8379 52.8081C51.1491 49.3393 53.3221 44.9365 54.0612 40.2076C54.5638 42.5498 54.7116 44.9661 54.4898 47.3528C65.1625 32.4249 55.3768 16.9484 51.2821 12.8718C51.2673 12.8422 51.2526 12.8273 51.2526 12.7977C51.2378 12.8125 51.2378 12.8125 51.2378 12.8273C51.2378 12.8124 51.2378 12.8124 51.223 12.7977C51.223 12.9756 51.2082 13.1534 51.1934 13.3313C51.1491 13.6723 51.1047 13.9984 51.0456 14.3246C50.9717 14.6507 50.883 14.9768 50.7943 15.3029C50.6908 15.6142 50.5726 15.9404 50.4395 16.2517C50.3065 16.5482 50.1587 16.8595 49.9961 17.156C49.8335 17.4376 49.6561 17.7341 49.4639 18.0009C49.2717 18.2826 49.0648 18.5494 48.8578 18.8014C48.6361 19.0683 48.3996 19.3055 48.1631 19.5427C48.0153 19.6761 47.8822 19.7947 47.7344 19.9133C47.6161 20.017 47.5127 20.106 47.3944 20.2097C47.1283 20.4173 46.8623 20.61 46.5666 20.7879C46.2858 20.9658 45.9901 21.1437 45.6945 21.2919C45.3841 21.4402 45.0736 21.5736 44.7632 21.707C44.4528 21.8256 44.1276 21.9293 43.8024 22.0183C43.4772 22.1072 43.1372 22.1814 42.812 22.2407C42.472 22.3 42.132 22.3296 41.8068 22.3593C41.5703 22.3741 41.3338 22.3889 41.0972 22.3889C40.7573 22.3889 40.4173 22.3593 40.0921 22.3296C39.7521 22.2999 39.4121 22.2554 39.0869 22.1813C38.7469 22.122 38.4217 22.0331 38.0965 21.9293H38.0817C38.4069 21.8997 38.7321 21.87 39.0573 21.8107C39.3973 21.7514 39.7225 21.6773 40.0477 21.5883C40.3729 21.4994 40.6981 21.3956 41.0085 21.277C41.3337 21.1584 41.6442 21.0102 41.9398 20.862C42.2502 20.7137 42.5311 20.5507 42.8267 20.3728C43.1076 20.18 43.3885 19.9873 43.6545 19.7798C43.9206 19.5723 44.1719 19.3499 44.4084 19.1127C44.6597 18.8903 44.8814 18.6383 45.1032 18.3863C45.3249 18.1195 45.5319 17.8527 45.724 17.5858C45.7536 17.5413 45.7832 17.4821 45.8127 17.4376C45.9605 17.2004 46.1084 16.9632 46.2414 16.726C46.404 16.4295 46.5518 16.133 46.6849 15.8217C46.8179 15.5104 46.9362 15.1991 47.0396 14.873C47.1431 14.5617 47.217 14.2356 47.2909 13.9094C47.3501 13.5685 47.4092 13.2423 47.4387 12.9162C47.4683 12.5752 47.4979 12.2343 47.4979 11.9082C47.4979 11.671 47.4831 11.4338 47.4684 11.1966C47.4388 10.8556 47.3944 10.5295 47.3501 10.2034C47.2909 9.86242 47.2171 9.53629 47.1284 9.21016C47.0249 8.89885 46.9214 8.57272 46.8032 8.26141C46.6849 7.9501 46.5371 7.6388 46.3893 7.34231C46.2267 7.04583 46.0641 6.74934 45.8867 6.46769C45.6945 6.18603 45.5023 5.91919 45.2954 5.65235C45.0737 5.40034 44.8519 5.14833 44.6154 4.89632C44.4972 4.77773 44.3641 4.64431 44.2311 4.52572C43.5659 4.00687 42.8711 3.51767 42.1764 3.07295C42.0729 3.01363 41.9842 2.96918 41.8807 2.9247C41.3929 2.6134 40.9346 2.45025 40.4764 2.30201Z" fill="#E0234E"/>
</svg>
