<svg width="53" height="60" viewBox="0 0 53 60" fill="none" xmlns="http://www.w3.org/2000/svg">
<g clip-path="url(#clip0_439_134)">
<path d="M26.5562 59.118C25.7701 59.118 25.0365 58.9043 24.3553 58.5303L17.3858 54.3097C16.3378 53.722 16.8618 53.5084 17.1762 53.4015C18.5911 52.9207 18.8531 52.8138 20.3204 51.959C20.4775 51.8521 20.6871 51.9056 20.8443 52.0125L26.1893 55.2714C26.399 55.3783 26.661 55.3783 26.8182 55.2714L47.7265 42.9302C47.9361 42.8233 48.0409 42.6096 48.0409 42.3425V17.7135C48.0409 17.4464 47.9361 17.2327 47.7265 17.1259L26.8182 4.83816C26.6086 4.73131 26.3465 4.73131 26.1893 4.83816L5.28103 17.1259C5.07142 17.2327 4.96661 17.4999 4.96661 17.7135V42.3425C4.96661 42.5562 5.07142 42.8233 5.28103 42.9302L10.9928 46.296C14.0845 47.8987 16.0234 46.0289 16.0234 44.159V19.8506C16.0234 19.53 16.2854 19.2095 16.6522 19.2095H19.3247C19.6391 19.2095 19.9535 19.4766 19.9535 19.8506V44.159C19.9535 48.3796 17.7002 50.8371 13.7701 50.8371C12.5649 50.8371 11.6217 50.8371 8.94913 49.5015L3.44697 46.296C2.08452 45.4946 1.24609 43.9987 1.24609 42.396V17.767C1.24609 16.1643 2.08452 14.6684 3.44697 13.867L24.3553 1.52581C25.6653 0.777857 27.447 0.777857 28.7571 1.52581L49.6653 13.867C51.0278 14.6684 51.8662 16.1643 51.8662 17.767V42.396C51.8662 43.9987 51.0278 45.4946 49.6653 46.296L28.7571 58.6372C28.1282 58.9043 27.3422 59.118 26.5562 59.118Z" fill="#5FA04E"/>
<path d="M33.0538 42.1821C23.8835 42.1821 21.9971 37.9081 21.9971 34.2752C21.9971 33.9547 22.2591 33.6342 22.6258 33.6342H25.3508C25.6651 33.6342 25.9272 33.8478 25.9272 34.1684C26.3464 36.9999 27.5517 38.389 33.1062 38.389C37.5079 38.389 39.3944 37.3739 39.3944 34.9697C39.3944 33.5807 38.8704 32.5656 32.0058 31.8711C26.294 31.2834 22.7307 30.0012 22.7307 25.3532C22.7307 21.0258 26.294 18.4614 32.2678 18.4614C38.9752 18.4614 42.2765 20.8121 42.6957 25.9409C42.6957 26.1012 42.6433 26.2615 42.5386 26.4218C42.4338 26.5286 42.2765 26.6355 42.1193 26.6355H39.342C39.08 26.6355 38.818 26.4218 38.7656 26.1546C38.1368 23.2162 36.5123 22.2546 32.2154 22.2546C27.3944 22.2546 26.818 23.9642 26.818 25.2464C26.818 26.7957 27.4993 27.2766 33.9971 28.1314C40.4425 28.9861 43.4818 30.2149 43.4818 34.8095C43.4818 39.5109 39.6564 42.1821 33.0538 42.1821Z" fill="#5FA04E"/>
</g>
<defs>
<clipPath id="clip0_439_134">
<rect width="51.5975" height="58.6335" fill="white" transform="translate(0.666016 0.484375)"/>
</clipPath>
</defs>
</svg>
