<?xml version="1.0" standalone="no"?>
<!DOCTYPE svg PUBLIC "-//W3C//DTD SVG 20010904//EN"
 "http://www.w3.org/TR/2001/REC-SVG-20010904/DTD/svg10.dtd">
<svg version="1.0" xmlns="http://www.w3.org/2000/svg"
 width="250.000000pt" height="258.000000pt" viewBox="0 0 250.000000 258.000000"
 preserveAspectRatio="xMidYMid meet">

<g transform="translate(0.000000,258.000000) scale(0.100000,-0.100000)"
fill="#000000" stroke="none">
<path d="M1630 2564 c-54 -10 -156 -16 -280 -18 -202 -2 -240 -9 -336 -59 -24
-13 -33 -13 -68 -1 -89 32 -241 55 -356 55 -188 1 -305 -40 -414 -142 -118
-110 -167 -246 -169 -464 -1 -98 5 -158 22 -245 56 -286 146 -581 231 -756
119 -241 288 -334 429 -234 24 17 26 17 64 -11 22 -16 63 -36 90 -44 63 -19
199 -19 259 -1 l46 13 6 -30 c3 -16 6 -60 6 -98 0 -87 17 -210 37 -274 65
-205 182 -279 377 -240 275 55 372 205 402 621 l6 91 97 6 c120 7 211 35 292
90 93 62 124 106 124 173 0 47 -4 57 -33 86 -30 31 -37 33 -100 33 -37 0 -94
-4 -126 -9 l-59 -9 41 75 c101 182 200 447 244 646 14 67 21 136 22 222 1 176
-11 209 -124 321 -72 72 -101 94 -180 132 -52 26 -124 53 -160 62 -96 23 -287
28 -390 9z m338 -70 c143 -29 257 -91 354 -191 71 -73 89 -122 89 -246 0 -245
-118 -612 -291 -902 -39 -66 -56 -103 -49 -110 12 -12 134 -12 244 -1 73 8 82
7 98 -12 25 -27 14 -64 -33 -106 -92 -83 -197 -118 -352 -119 l-98 -1 -5 -30
c-3 -17 -12 -87 -20 -156 -37 -297 -56 -368 -119 -438 -70 -78 -241 -128 -351
-103 -76 17 -153 89 -183 173 -24 64 -42 246 -42 419 l0 107 -71 -36 c-68 -35
-77 -37 -163 -36 -72 0 -102 5 -144 24 -56 24 -72 43 -72 84 0 36 41 63 128
82 65 14 83 23 122 60 l45 42 -30 7 c-33 7 -94 24 -111 31 -6 3 -64 -56 -129
-130 -66 -75 -132 -142 -150 -150 -166 -79 -315 117 -452 594 -24 85 -58 222
-75 305 -105 504 47 796 430 821 101 7 243 -12 372 -50 l85 -25 51 25 c29 14
76 32 105 39 61 17 233 19 294 5 30 -7 58 -4 115 10 96 24 115 27 233 29 57 0
130 -6 175 -15z"/>
<path d="M1730 2434 c-19 -2 -50 -7 -69 -10 l-34 -5 69 -41 c144 -86 304 -282
355 -436 23 -68 23 -82 1 -274 -4 -37 -5 -100 -1 -140 4 -40 8 -116 8 -168 0
-91 -3 -106 -43 -215 -6 -16 -4 -15 13 5 39 45 179 343 221 466 76 226 106
426 80 533 -23 97 -167 213 -318 257 -76 22 -215 35 -282 28z"/>
<path d="M1192 2400 c-110 -23 -209 -93 -274 -194 -44 -68 -93 -213 -103 -303
l-7 -62 63 26 c92 37 193 43 253 13 91 -44 132 -174 124 -400 -4 -125 -4 -125
-61 -266 -31 -78 -57 -145 -57 -148 0 -3 12 -6 28 -6 42 0 91 -36 112 -83 18
-38 20 -67 20 -277 0 -363 22 -469 109 -527 43 -29 134 -31 219 -4 133 41 160
88 196 341 14 96 30 225 36 285 20 197 19 196 53 230 18 18 38 34 46 36 10 4
5 18 -21 54 -55 77 -194 356 -223 446 -70 224 4 349 206 349 38 0 69 2 69 5 0
15 -68 138 -106 191 -91 130 -246 240 -389 278 -73 20 -234 28 -293 16z"/>
<path d="M430 2385 c-233 -66 -325 -294 -260 -651 78 -432 230 -828 348 -906
58 -39 70 -31 245 165 l79 87 -31 36 c-73 83 -103 192 -89 324 4 36 7 148 6
250 0 289 40 446 154 598 22 30 38 55 36 57 -2 3 -42 14 -89 26 -113 28 -321
35 -399 14z"/>
<path d="M1860 1831 c-81 -17 -103 -46 -102 -132 1 -89 37 -180 165 -421 l36
-67 12 36 c14 44 16 114 5 273 -6 89 -5 151 4 213 7 48 10 90 8 93 -9 9 -94
12 -128 5z m59 -35 c24 -29 -12 -66 -63 -66 -27 0 -61 34 -51 50 18 29 95 39
114 16z"/>
<path d="M913 1801 c-28 -11 -64 -27 -80 -36 l-29 -17 0 -121 c1 -67 -1 -169
-4 -227 -4 -91 -2 -111 16 -151 30 -65 81 -119 139 -145 86 -40 96 -36 128 54
16 42 42 115 59 162 28 75 32 97 32 190 -1 157 -26 266 -70 295 -32 21 -126
19 -191 -4z m172 -21 c34 -13 42 -36 20 -60 -25 -28 -71 -25 -100 5 -30 29
-31 40 -7 54 22 13 54 14 87 1z"/>
<path d="M1080 921 c-63 -66 -67 -69 -153 -91 -70 -19 -85 -25 -71 -33 30 -17
160 -21 209 -7 59 17 145 92 145 126 0 23 -39 74 -57 74 -4 0 -37 -31 -73 -69z"/>
<path d="M1960 970 c-11 -11 -20 -33 -20 -50 0 -38 24 -45 134 -37 84 6 173
33 214 65 24 18 22 18 -85 14 -85 -3 -116 -1 -147 12 -51 21 -72 20 -96 -4z"/>
</g>
</svg>
