<svg width="65" height="60" viewBox="0 0 65 60" fill="none" xmlns="http://www.w3.org/2000/svg">
<g clip-path="url(#clip0_439_116)">
<path d="M32.3921 36.0059C35.7565 36.0059 38.4839 33.228 38.4839 29.8013C38.4839 26.3746 35.7565 23.5967 32.3921 23.5967C29.0277 23.5967 26.3003 26.3746 26.3003 29.8013C26.3003 33.228 29.0277 36.0059 32.3921 36.0059Z" fill="#087EA4"/>
<path d="M32.3921 43.7616C49.2141 43.7616 62.8511 37.5113 62.8511 29.8012C62.8511 22.0911 49.2141 15.8408 32.3921 15.8408C15.5701 15.8408 1.93311 22.0911 1.93311 29.8012C1.93311 37.5113 15.5701 43.7616 32.3921 43.7616Z" stroke="#087EA4" stroke-width="2.74845"/>
<path d="M20.5218 36.7815C28.9328 51.6195 41.0657 60.5231 47.6215 56.668C54.1772 52.813 52.6732 37.6592 44.2622 22.8211C35.8512 7.98299 23.7182 -0.92052 17.1625 2.93453C10.6068 6.78958 12.1108 21.9434 20.5218 36.7815Z" stroke="#087EA4" stroke-width="2.74845"/>
<path d="M20.5218 22.8212C12.1108 37.6593 10.6068 52.813 17.1625 56.6681C23.7182 60.5231 35.8512 51.6196 44.2622 36.7815C52.6732 21.9434 54.1772 6.78966 47.6215 2.93461C41.0657 -0.920439 28.9328 7.98307 20.5218 22.8212Z" stroke="#087EA4" stroke-width="2.74845"/>
</g>
<defs>
<clipPath id="clip0_439_116">
<rect width="63.9639" height="58.6335" fill="white" transform="translate(0.410156 0.484375)"/>
</clipPath>
</defs>
</svg>
