<svg width="60" height="60" viewBox="0 0 60 60" fill="none" xmlns="http://www.w3.org/2000/svg">
<g clip-path="url(#clip0_257_1053)">
<path d="M59.1753 29.1554C59.0159 19.3526 53.5501 9.8082 45.0941 4.7822C38.4319 0.632965 30.0161 -0.483821 22.4359 1.43093C11.0271 4.30306 1.93155 14.6354 0.775372 26.4116C-0.66115 37.5336 4.964 49.1009 14.5772 54.8049C23.9915 60.7085 36.7965 60.4694 46.0011 54.2552C54.2986 48.87 59.4446 39.0471 59.1661 29.1637L59.1753 29.1554ZM31.4911 54.7664C18.1675 56.0829 5.28282 44.7941 4.92278 31.4302C3.91501 20.5803 11.0656 9.84942 21.2779 6.25904C35.5991 0.514781 53.191 11.1256 54.6669 26.4849C56.9811 40.2857 45.4926 54.3358 31.4911 54.7664ZM22.7236 28.3172L41.9902 12.5594L31.5791 28.3566C28.6272 28.3566 25.6754 28.3575 22.7236 28.3172ZM28.1407 31.2305L36.9962 31.2708L17.7296 47.068L28.1407 31.2305Z" fill="#F9FAFB"/>
</g>
<defs>
<clipPath id="clip0_257_1053">
<rect width="58.6335" height="58.6335" fill="white" transform="translate(0.552734 0.484375)"/>
</clipPath>
</defs>
</svg>
