<svg width="18" height="18" viewBox="0 0 18 18" fill="none" xmlns="http://www.w3.org/2000/svg">
<path d="M6.86589 3.20066C7.60742 1.35201 7.97819 0.427693 8.58056 0.299586C8.73895 0.265901 8.90265 0.265901 9.06104 0.299586C9.66342 0.427693 10.0342 1.35201 10.7757 3.20066C11.1974 4.25194 11.4083 4.77759 11.8028 5.13511C11.9135 5.23539 12.0336 5.3247 12.1615 5.40179C12.6175 5.67663 13.1867 5.72761 14.3252 5.82957C16.2525 6.00217 17.2161 6.08847 17.5104 6.63791C17.5713 6.75171 17.6128 6.87491 17.633 7.00241C17.7305 7.618 17.0221 8.26251 15.6053 9.55152L15.2118 9.90948C14.5495 10.5121 14.2183 10.8134 14.0267 11.1895C13.9118 11.415 13.8347 11.658 13.7986 11.9086C13.7384 12.3263 13.8354 12.7634 14.0294 13.6376L14.0987 13.95C14.4466 15.5178 14.6205 16.3017 14.4034 16.687C14.2083 17.0332 13.8491 17.2547 13.4523 17.2737C13.0105 17.2948 12.388 16.7876 11.1431 15.7731C10.3228 15.1047 9.91273 14.7705 9.45746 14.64C9.0414 14.5207 8.6002 14.5207 8.18415 14.64C7.72887 14.7705 7.31876 15.1047 6.49854 15.7731C5.25358 16.7876 4.6311 17.2948 4.18932 17.2737C3.7925 17.2547 3.43327 17.0332 3.23824 16.687C3.02113 16.3017 3.19505 15.5178 3.54291 13.95L3.61221 13.6376C3.80618 12.7634 3.90317 12.3263 3.84298 11.9086C3.80688 11.658 3.72983 11.415 3.61491 11.1895C3.42334 10.8134 3.09215 10.5121 2.42976 9.90948L2.03631 9.55153C0.619488 8.26251 -0.0889245 7.618 0.00863438 7.00241C0.0288397 6.87491 0.0702767 6.75171 0.131223 6.63791C0.425492 6.08847 1.38912 6.00217 3.31639 5.82957C4.45487 5.72761 5.02412 5.67663 5.48012 5.40179C5.60802 5.3247 5.72815 5.23539 5.83881 5.13511C6.23334 4.77759 6.44419 4.25194 6.86589 3.20066Z" fill="#FFA800"/>
</svg>
