<svg width="60" height="60" viewBox="0 0 60 60" fill="none" xmlns="http://www.w3.org/2000/svg">
  <g clip-path="url(#clip0_439_111)">
    <path
      d="M56.3324 0.484375H3.19571C1.67779 0.484375 0.447266 1.7149 0.447266 3.23282V56.3695C0.447266 57.8874 1.67779 59.1179 3.19571 59.1179H56.3324C57.8503 59.1179 59.0808 57.8874 59.0808 56.3695V3.23282C59.0808 1.7149 57.8503 0.484375 56.3324 0.484375Z"
      fill="#3178C6" />
    <path fill-rule="evenodd" clip-rule="evenodd"
      d="M34.4647 46.0481V52.473C35.5056 53.0081 36.7366 53.4098 38.1579 53.6773C39.5792 53.9453 41.0771 54.079 42.6518 54.079C44.1865 54.079 45.6444 53.932 47.0254 53.6375C48.407 53.3429 49.6177 52.8578 50.6589 52.1817C51.6996 51.5056 52.5237 50.6224 53.1311 49.5313C53.7381 48.4406 54.0418 47.092 54.0418 45.4859C54.0418 44.3214 53.8682 43.3008 53.5214 42.4241C53.1742 41.5474 52.674 40.7677 52.0198 40.0851C51.3661 39.4024 50.5819 38.7901 49.6681 38.248C48.7537 37.7059 47.7231 37.1939 46.5751 36.7121C45.7345 36.3641 44.9805 36.0261 44.3133 35.6982C43.646 35.3702 43.0788 35.0356 42.6118 34.6943C42.1447 34.3529 41.7844 33.9916 41.5308 33.6101C41.2773 33.2286 41.1505 32.7969 41.1505 32.3151C41.1505 31.8734 41.2639 31.4752 41.4908 31.1205C41.7177 30.7658 42.038 30.4613 42.4516 30.2069C42.8653 29.9527 43.3724 29.7552 43.973 29.6147C44.5735 29.4741 45.2407 29.4039 45.9747 29.4039C46.5087 29.4039 47.0722 29.444 47.6663 29.5243C48.2599 29.6046 48.8573 29.7284 49.4578 29.8958C50.0583 30.0631 50.6419 30.2739 51.2095 30.5282C51.7766 30.7825 52.3002 31.077 52.7807 31.4116V25.4085C51.8064 25.0337 50.7423 24.756 49.5879 24.5752C48.4336 24.3945 47.1093 24.3042 45.6144 24.3042C44.0931 24.3042 42.6518 24.4681 41.2906 24.7961C39.9294 25.124 38.7317 25.636 37.6975 26.332C36.6632 27.028 35.8458 27.9148 35.2454 28.9923C34.6448 30.0698 34.3446 31.358 34.3446 32.8572C34.3446 34.7712 34.895 36.4042 35.996 37.7561C37.097 39.108 38.7684 40.2524 41.0104 41.1893C41.8912 41.5507 42.7119 41.9054 43.4725 42.2534C44.2332 42.6014 44.8904 42.9628 45.4443 43.3376C45.9981 43.7124 46.435 44.1206 46.7552 44.5623C47.0758 45.004 47.2357 45.506 47.2357 46.0681C47.2357 46.4833 47.1358 46.868 46.9356 47.2226C46.7355 47.5771 46.4318 47.885 46.0248 48.1461C45.6177 48.4072 45.1106 48.6115 44.5034 48.7585C43.8962 48.9056 43.1856 48.9793 42.3716 48.9793C40.9837 48.9793 39.6092 48.7351 38.2479 48.2464C36.8868 47.7581 35.6257 47.0252 34.4647 46.0481ZM23.6726 30.055H32.0542V24.7623H8.69238V30.055H17.033V53.621H23.6726V30.055Z"
      fill="white" />
  </g>
  <defs>
    <clipPath id="clip0_439_111">
      <rect width="58.6335" height="58.6335" fill="white" transform="translate(0.447266 0.484375)" />
    </clipPath>
  </defs>
</svg>